HIERARCHY
ROOT Model
{
	OFFSET 0 0 0
	CHANNELS 6 Xposition Yposition Zposition Zrotation Xrotation Yrotation
	JOINT Model1
	{
		OFFSET 0 -2.25479 2.99383
		CHANNELS 3 Zrotation Xrotation Yrotation
		JOINT Model2
		{
			OFFSET 12.111 0 0
			CHANNELS 3 Zrotation Xrotation Yrotation
			JOINT Model3
			{
				OFFSET 11.5502 0 0
				CHANNELS 3 Zrotation Xrotation Yrotation
				JOINT Model4
				{
					OFFSET 11.781 0 0
					CHANNELS 3 Zrotation Xrotation Yrotation
					JOINT Model5
					{
						OFFSET 20.0601 0 0
						CHANNELS 3 Zrotation Xrotation Yrotation
						JOINT Model6
						{
							OFFSET 11.1962 0 0
							CHANNELS 3 Zrotation Xrotation Yrotation
							End Site
							{
								OFFSET 0 0 0
							}
						}
					}
					JOINT Model7
					{
						OFFSET 10.8223 0.417534 3.51114
						CHANNELS 3 Zrotation Xrotation Yrotation
						JOINT Model8
						{
							OFFSET -6.07943 0 0
							CHANNELS 3 Zrotation Xrotation Yrotation
							JOINT Model9
							{
								OFFSET -0.277412 10.39 -0.0512466
								CHANNELS 3 Zrotation Xrotation Yrotation
								JOINT Model10
								{
									OFFSET -3.4391 -0.282043 1.86678
									CHANNELS 3 Zrotation Xrotation Yrotation
									JOINT Model11
									{
										OFFSET 13.0269 0 0
										CHANNELS 3 Zrotation Xrotation Yrotation
										JOINT Model12
										{
											OFFSET 10.8866 0 0
											CHANNELS 3 Zrotation Xrotation Yrotation
											JOINT Model13
											{
												OFFSET 16.7317 0 0
												CHANNELS 3 Zrotation Xrotation Yrotation
												JOINT Model14
												{
													OFFSET 11.8292 0 0
													CHANNELS 3 Zrotation Xrotation Yrotation
													JOINT Model15
													{
														OFFSET 4.82751 -3.73566 -0.836517
														CHANNELS 3 Zrotation Xrotation Yrotation
														JOINT Model16
														{
															OFFSET 3.75311 -0.0582886 -0.0186462
															CHANNELS 3 Zrotation Xrotation Yrotation
															JOINT Model17
															{
																OFFSET 2.88689 0.0192337 0.014801
																CHANNELS 3 Zrotation Xrotation Yrotation
																End Site
																{
																	OFFSET 0 0 0
																}
															}
														}
													}
													JOINT Model18
													{
														OFFSET 9.72197 -3.06458 0.23877
														CHANNELS 3 Zrotation Xrotation Yrotation
														JOINT Model19
														{
															OFFSET 4.61131 0 0
															CHANNELS 3 Zrotation Xrotation Yrotation
															JOINT Model20
															{
																OFFSET 2.8969 -7.62939e-006 0
																CHANNELS 3 Zrotation Xrotation Yrotation
																End Site
																{
																	OFFSET 0 0 0
																}
															}
														}
													}
													JOINT Model21
													{
														OFFSET 9.54431 -0.745064 0.588936
														CHANNELS 3 Zrotation Xrotation Yrotation
														JOINT Model22
														{
															OFFSET 5.33978 0 0
															CHANNELS 3 Zrotation Xrotation Yrotation
															JOINT Model23
															{
																OFFSET 3.03619 7.62939e-006 0
																CHANNELS 3 Zrotation Xrotation Yrotation
																End Site
																{
																	OFFSET 0 0 0
																}
															}
														}
													}
													JOINT Model24
													{
														OFFSET 9.47758 1.51286 0.485123
														CHANNELS 3 Zrotation Xrotation Yrotation
														JOINT Model25
														{
															OFFSET 4.96136 7.62939e-006 0
															CHANNELS 3 Zrotation Xrotation Yrotation
															JOINT Model26
															{
																OFFSET 2.51965 0 0
																CHANNELS 3 Zrotation Xrotation Yrotation
																End Site
																{
																	OFFSET 0 0 0
																}
															}
														}
													}
													JOINT Model27
													{
														OFFSET 9.34247 3.34117 -0.239281
														CHANNELS 3 Zrotation Xrotation Yrotation
														JOINT Model28
														{
															OFFSET 3.28259 2.28882e-005 0
															CHANNELS 3 Zrotation Xrotation Yrotation
															JOINT Model29
															{
																OFFSET 2.1292 0 0
																CHANNELS 3 Zrotation Xrotation Yrotation
																End Site
																{
																	OFFSET 0 0 0
																}
															}
														}
													}
												}
											}
										}
									}
								}
							}
						}
					}
					JOINT Model30
					{
						OFFSET 10.8223 0.4179 -3.51107
						CHANNELS 3 Zrotation Xrotation Yrotation
						JOINT Model31
						{
							OFFSET 6.07944 0 0
							CHANNELS 3 Zrotation Xrotation Yrotation
							JOINT Model32
							{
								OFFSET 0.27742 -10.39 0.0512466
								CHANNELS 3 Zrotation Xrotation Yrotation
								JOINT Model33
								{
									OFFSET 3.4391 0.282043 -1.86678
									CHANNELS 3 Zrotation Xrotation Yrotation
									JOINT Model34
									{
										OFFSET -13.0269 0 0
										CHANNELS 3 Zrotation Xrotation Yrotation
										JOINT Model35
										{
											OFFSET -10.8866 0 0
											CHANNELS 3 Zrotation Xrotation Yrotation
											JOINT Model36
											{
												OFFSET -16.7317 0 0
												CHANNELS 3 Zrotation Xrotation Yrotation
												JOINT Model37
												{
													OFFSET -11.8292 0 0
													CHANNELS 3 Zrotation Xrotation Yrotation
													JOINT Model38
													{
														OFFSET -4.82751 3.73566 0.836517
														CHANNELS 3 Zrotation Xrotation Yrotation
														JOINT Model39
														{
															OFFSET -3.75311 0.0582886 0.0186462
															CHANNELS 3 Zrotation Xrotation Yrotation
															JOINT Model40
															{
																OFFSET -2.88688 -0.0192337 -0.014801
																CHANNELS 3 Zrotation Xrotation Yrotation
																End Site
																{
																	OFFSET 0 0 0
																}
															}
														}
													}
													JOINT Model41
													{
														OFFSET -9.72197 3.06459 -0.23877
														CHANNELS 3 Zrotation Xrotation Yrotation
														JOINT Model42
														{
															OFFSET -4.6113 0 0
															CHANNELS 3 Zrotation Xrotation Yrotation
															JOINT Model43
															{
																OFFSET -2.8969 0 0
																CHANNELS 3 Zrotation Xrotation Yrotation
																End Site
																{
																	OFFSET 0 0 0
																}
															}
														}
													}
													JOINT Model44
													{
														OFFSET -9.5443 0.745064 -0.588936
														CHANNELS 3 Zrotation Xrotation Yrotation
														JOINT Model45
														{
															OFFSET -5.33978 0 0
															CHANNELS 3 Zrotation Xrotation Yrotation
															JOINT Model46
															{
																OFFSET -3.03619 -1.52588e-005 0
																CHANNELS 3 Zrotation Xrotation Yrotation
																End Site
																{
																	OFFSET 0 0 0
																}
															}
														}
													}
													JOINT Model47
													{
														OFFSET -9.47759 -1.51286 -0.485123
														CHANNELS 3 Zrotation Xrotation Yrotation
														JOINT Model48
														{
															OFFSET -4.96136 -1.52588e-005 0
															CHANNELS 3 Zrotation Xrotation Yrotation
															JOINT Model49
															{
																OFFSET -2.51966 0 0
																CHANNELS 3 Zrotation Xrotation Yrotation
																End Site
																{
																	OFFSET 0 0 0
																}
															}
														}
													}
													JOINT Model50
													{
														OFFSET -9.34246 -3.34118 0.239281
														CHANNELS 3 Zrotation Xrotation Yrotation
														JOINT Model51
														{
															OFFSET -3.2826 -2.28882e-005 0
															CHANNELS 3 Zrotation Xrotation Yrotation
															JOINT Model52
															{
																OFFSET -2.1292 0 0
																CHANNELS 3 Zrotation Xrotation Yrotation
																End Site
																{
																	OFFSET 0 0 0
																}
															}
														}
													}
												}
											}
										}
									}
								}
							}
						}
					}
				}
			}
		}
	}
	JOINT Model53
	{
		OFFSET 4.38026 -2.14632 -1.11516
		CHANNELS 3 Zrotation Xrotation Yrotation
		JOINT Model54
		{
			OFFSET 0 0 4.94999
			CHANNELS 3 Zrotation Xrotation Yrotation
			JOINT Model55
			{
				OFFSET 18.5642 0 0
				CHANNELS 3 Zrotation Xrotation Yrotation
				JOINT Model56
				{
					OFFSET 21.2884 0 1.52588e-005
					CHANNELS 3 Zrotation Xrotation Yrotation
					JOINT Model57
					{
						OFFSET 30.261 0 0
						CHANNELS 3 Zrotation Xrotation Yrotation
						JOINT Model58
						{
							OFFSET 11.7259 0 0
							CHANNELS 3 Zrotation Xrotation Yrotation
							JOINT Model59
							{
								OFFSET 10.682 0 0
								CHANNELS 3 Zrotation Xrotation Yrotation
								End Site
								{
									OFFSET 0 0 0
								}
							}
						}
					}
				}
			}
		}
	}
	JOINT Model60
	{
		OFFSET -4.38026 -2.14632 -1.11516
		CHANNELS 3 Zrotation Xrotation Yrotation
		JOINT Model61
		{
			OFFSET 0 0 -4.94999
			CHANNELS 3 Zrotation Xrotation Yrotation
			JOINT Model62
			{
				OFFSET -18.5642 0 0
				CHANNELS 3 Zrotation Xrotation Yrotation
				JOINT Model63
				{
					OFFSET -21.2884 0 -1.52588e-005
					CHANNELS 3 Zrotation Xrotation Yrotation
					JOINT Model64
					{
						OFFSET -30.261 0 0
						CHANNELS 3 Zrotation Xrotation Yrotation
						JOINT Model65
						{
							OFFSET -11.7259 0 0
							CHANNELS 3 Zrotation Xrotation Yrotation
							JOINT Model66
							{
								OFFSET -10.682 0 0
								CHANNELS 3 Zrotation Xrotation Yrotation
								End Site
								{
									OFFSET 0 0 0
								}
							}
						}
					}
				}
			}
		}
	}
}
MOTION
Frames: 5
Frame Time: 0.033333
90.4224 163.635 -372.974 -5.84645 -63.7052 1.17556 -180 4.29621e-031 -90 3.00011 0.56737 1.09718 5.9893 1.19082 2.16334 5.9893 1.19126 2.1633 25.1024 -2.38578 -0.496107 18.6621 -3.65977 -0.871544 120.092 75.5343 58.4939 -8.62546 0.631993 2.08084 -167.277 84.4999 48.8109 174.786 3.30024 16.0843 5.38159e-007 22.7142 3.35703e-005 -57.6934 2.86089 0.515268 4.34167e-007 3.61947 3.79856e-007 7.08164 -0.0269013 -0.434738 -72.0648 39.0385 39.3397 33.3638 2.10362 14.835 0.588947 0.308273 6.35287 -99.6409 81.413 100.35 -0.0181409 2.77884e-005 -0.117315 -0.124139 0.00241113 -0.799296 -79.8382 79.5773 80.5374 -0.000225755 -0.000220913 2.21895e-005 -0.000956197 0.000122908 -2.73275e-005 -66.7416 80.4058 67.2171 -0.00043711 1.59554e-005 -2.73265e-005 -0.000136574 -0.000109278 -5.46494e-005 -6.42159 81.2158 8.01779 -0.000218544 1.69106e-005 0.000212132 0.000901614 -0.000184798 -0.000218577 -59.9282 75.5373 58.5147 -7.38434 1.15196 2.04608 -167.277 84.4999 48.8109 172.466 2.39501 10.4759 -8.36115e-006 23.3211 3.73682e-005 -49.0551 4.2197 0.461052 -2.16596e-006 5.67541 7.95395e-007 9.11685 -0.308646 -3.86983 -72.0648 39.0385 39.3397 33.3638 2.10361 14.835 0.588946 0.308273 6.35287 -99.6409 81.413 100.35 -0.0181409 3.0077e-005 -0.117315 -0.124139 0.00241113 -0.799296 -79.8382 79.5773 80.5374 -0.000260655 -0.000218567 2.35667e-005 -0.000956238 0.000122995 -2.73258e-005 -66.7416 80.4058 67.2171 -0.000437141 1.488e-005 -2.73243e-005 -0.000136616 -0.000109285 -5.46463e-005 -6.42159 81.2158 8.01779 -0.000218576 1.95771e-005 0.000212293 0.00090157 -0.000191248 -0.000218571 0.000811311 0.56661 89.91 -18.6639 -4.56934 -13.2069 3.175e-007 0.853257 -9.00928e-010 34.2942 -0.321415 -0.00468563 -1.49304e-008 -0.546726 -1.51272e-008 -92.7534 -4.61765 -0.375333 -35.4876 -0.0078816 -0.0993047 -180 -0.566579 -90.09 -60.7079 1.19026 9.63883 7.22781e-007 1.92088 -3.75939e-008 57.0055 3.42885 -0.00669281 4.86372e-007 5.04163 3.31769e-007 -73.3364 5.69613 -3.84679 -35.4856 -0.01011 -0.127363 
90.4021 163.648 -372.386 -6.35606 -63.1836 0.711523 -180 4.29621e-031 -90 2.89092 0.42574 1.11942 5.77327 0.906849 2.21606 5.77327 0.907284 2.21601 25.6858 -2.26279 -0.772383 18.5685 -3.45179 -1.48781 120.092 75.5343 58.4939 -9.07447 0.524896 2.1226 -167.277 84.4999 48.8109 174.347 3.20218 15.9548 5.74847e-007 22.6564 3.35561e-005 -55.885 2.91483 0.504743 4.33625e-007 3.70109 3.79891e-007 6.16617 -0.0578734 -1.07444 -72.0648 39.0385 39.3397 33.3638 2.10362 14.835 0.588947 0.308273 6.35287 -99.6409 81.413 100.35 -0.0181409 2.77884e-005 -0.117315 -0.124139 0.00241113 -0.799296 -79.8382 79.5773 80.5374 -0.000225755 -0.000220913 2.21895e-005 -0.000956197 0.000122908 -2.73275e-005 -66.7416 80.4058 67.2171 -0.00043711 1.59554e-005 -2.73265e-005 -0.000136574 -0.000109278 -5.46494e-005 -6.42159 81.2158 8.01779 -0.000218544 1.69106e-005 0.000212132 0.000901614 -0.000184798 -0.000218577 -59.9282 75.5373 58.5147 -7.36025 1.93109 2.33655 -167.277 84.4999 48.8109 172.406 2.3355 10.3434 -8.32834e-006 23.2749 3.73552e-005 -48.6507 4.26912 0.458242 -2.16702e-006 5.75125 7.955e-007 7.96129 -0.281332 -4.04124 -72.0648 39.0385 39.3397 33.3638 2.10361 14.835 0.588946 0.308273 6.35287 -99.6409 81.413 100.35 -0.0181409 3.0077e-005 -0.117315 -0.124139 0.00241113 -0.799296 -79.8382 79.5773 80.5374 -0.000260655 -0.000218567 2.35667e-005 -0.000956238 0.000122995 -2.73258e-005 -66.7416 80.4058 67.2171 -0.000437141 1.488e-005 -2.73243e-005 -0.000136616 -0.000109285 -5.46463e-005 -6.42159 81.2158 8.01779 -0.000218576 1.95771e-005 0.000212293 0.00090157 -0.000191248 -0.000218571 0.000811311 0.56661 89.91 -18.1726 -4.75962 -13.134 3.17496e-007 0.621678 -9.00881e-010 33.1314 -0.264353 -0.00454699 -1.49072e-008 -0.458867 -1.5127e-008 -92.6056 -4.43544 -0.417027 -35.4816 -0.0146167 -0.184051 -180 -0.566579 -90.09 -60.8183 1.26126 9.9092 7.22861e-007 2.04229 -3.75966e-008 57.0702 3.48074 -0.00671029 4.8592e-007 5.11937 3.31809e-007 -73.7708 5.89193 -3.92823 -35.4855 -0.0102105 -0.128626 
90.3856 163.615 -371.777 -6.66524 -62.7153 0.508781 -180 4.29621e-031 -90 2.80083 0.313638 1.15884 5.59491 0.682995 2.30104 5.59491 0.68343 2.301 26.0805 -2.10886 -1.2587 18.4561 -3.24944 -1.54904 120.092 75.5343 58.4939 -9.39446 0.489237 2.16819 -167.277 84.4999 48.8109 173.9 3.27797 15.6783 4.09744e-007 22.9161 3.362e-005 -54.88 2.59394 0.498547 4.36814e-007 3.22082 3.79698e-007 6.82903 -0.120316 -2.01631 -72.0648 39.0385 39.3397 33.3638 2.10362 14.835 0.588947 0.308273 6.35287 -99.6409 81.413 100.35 -0.0181409 2.77884e-005 -0.117315 -0.124139 0.00241113 -0.799296 -79.8382 79.5773 80.5374 -0.000225755 -0.000220913 2.21895e-005 -0.000956197 0.000122908 -2.73275e-005 -66.7416 80.4058 67.2171 -0.00043711 1.59554e-005 -2.73265e-005 -0.000136574 -0.000109278 -5.46494e-005 -6.42159 81.2158 8.01779 -0.000218544 1.69106e-005 0.000212132 0.000901614 -0.000184798 -0.000218577 -59.9282 75.5373 58.5147 -7.11882 2.45471 2.48547 -167.277 84.4999 48.8109 172.021 2.47626 10.2286 -8.51354e-006 23.5353 3.74287e-005 -48.59 4.01821 0.457683 -2.16177e-006 5.37512 7.94992e-007 8.75745 -0.308916 -4.0327 -72.0648 39.0385 39.3397 33.3638 2.10361 14.835 0.588946 0.308273 6.35287 -99.6409 81.413 100.35 -0.0181409 3.0077e-005 -0.117315 -0.124139 0.00241113 -0.799296 -79.8382 79.5773 80.5374 -0.000260655 -0.000218567 2.35667e-005 -0.000956238 0.000122995 -2.73258e-005 -66.7416 80.4058 67.2171 -0.000437141 1.488e-005 -2.73243e-005 -0.000136616 -0.000109285 -5.46463e-005 -6.42159 81.2158 8.01779 -0.000218576 1.95771e-005 0.000212293 0.00090157 -0.000191248 -0.000218571 0.000811311 0.56661 89.91 -17.6718 -4.88009 -13.1561 3.17495e-007 0.553033 -9.0087e-010 32.0604 -0.377821 -0.00440842 -1.49516e-008 -0.626955 -1.51274e-008 -92.4663 -4.58617 -0.363614 -35.479 -0.0174449 -0.230657 -180 -0.566579 -90.09 -60.9112 1.22717 10.0557 7.22836e-007 2.00396 -3.75958e-008 57.2384 3.48833 -0.00672793 4.85855e-007 5.13054 3.31815e-007 -74.2785 6.05923 -3.99204 -35.4856 -0.010121 -0.127498 
90.4004 163.609 -371.172 -7.13696 -62.3216 0.13458 -180 4.29621e-031 -90 2.7174 0.186121 1.2013 5.43038 0.428468 2.39247 5.43038 0.428903 2.39242 26.4762 -1.9059 -1.92845 18.4641 -2.98438 -1.62669 120.092 75.5343 58.4939 -9.92137 0.146391 2.12793 -167.277 84.4999 48.8109 173.351 3.14827 15.2587 4.10465e-007 22.915 3.36198e-005 -53.714 2.94989 0.491434 4.33256e-007 3.75662 3.79915e-007 7.13106 -0.0869116 -1.39474 -72.0648 39.0385 39.3397 33.3638 2.10362 14.835 0.588947 0.308273 6.35287 -99.6409 81.413 100.35 -0.0181409 2.77884e-005 -0.117315 -0.124139 0.00241113 -0.799296 -79.8382 79.5773 80.5374 -0.000225755 -0.000220913 2.21895e-005 -0.000956197 0.000122908 -2.73275e-005 -66.7416 80.4058 67.2171 -0.00043711 1.59554e-005 -2.73265e-005 -0.000136574 -0.000109278 -5.46494e-005 -6.42159 81.2158 8.01779 -0.000218544 1.69106e-005 0.000212132 0.000901614 -0.000184798 -0.000218577 -59.9282 75.5373 58.5147 -7.07919 3.0478 2.69967 -167.277 84.4999 48.8109 171.797 2.34069 10.1847 -8.38029e-006 23.348 3.73757e-005 -48.1299 4.13865 0.454486 -2.16432e-006 5.55784 7.95234e-007 9.15479 -0.316533 -3.95214 -72.0648 39.0385 39.3397 33.3638 2.10361 14.835 0.588946 0.308273 6.35287 -99.6409 81.413 100.35 -0.0181409 3.0077e-005 -0.117315 -0.124139 0.00241113 -0.799296 -79.8382 79.5773 80.5374 -0.000260655 -0.000218567 2.35667e-005 -0.000956238 0.000122995 -2.73258e-005 -66.7416 80.4058 67.2171 -0.000437141 1.488e-005 -2.73243e-005 -0.000136616 -0.000109285 -5.46463e-005 -6.42159 81.2158 8.01779 -0.000218576 1.95771e-005 0.000212293 0.00090157 -0.000191248 -0.000218571 0.000811311 0.56661 89.91 -16.9825 -5.04584 -13.0989 3.17493e-007 0.406387 -9.0085e-010 30.8028 -0.46428 -0.00426076 -1.49851e-008 -0.754128 -1.51278e-008 -92.2534 -4.61956 -0.338505 -35.4748 -0.0221779 -0.279067 -180 -0.566579 -90.09 -60.885 1.24063 10.2455 7.22847e-007 2.02146 -3.75962e-008 57.2967 3.49232 -0.00674599 4.8582e-007 5.13646 3.31818e-007 -74.7252 6.19051 -4.03929 -35.4861 -0.00962807 -0.1213 
90.4297 163.584 -370.559 -7.47775 -61.8844 -0.166901 -180 4.29621e-031 -90 2.59805 0.0509108 1.15524 5.19457 0.153636 2.307 5.19457 0.154071 2.30696 27.0285 -1.71967 -2.29719 18.3451 -2.70506 -1.65057 120.092 75.5343 58.4939 -9.95169 0.172436 2.14409 -167.277 84.4999 48.8109 173.789 2.97688 14.9582 5.37945e-007 22.7146 3.35703e-005 -53.6121 3.12727 0.490862 4.31486e-007 4.02289 3.80035e-007 7.82881 -0.0687281 -1.00439 -72.0648 39.0385 39.3397 33.3638 2.10362 14.835 0.588947 0.308273 6.35287 -99.6409 81.413 100.35 -0.0181409 2.77884e-005 -0.117315 -0.124139 0.00241113 -0.799296 -79.8382 79.5773 80.5374 -0.000225755 -0.000220913 2.21895e-005 -0.000956197 0.000122908 -2.73275e-005 -66.7416 80.4058 67.2171 -0.00043711 1.59554e-005 -2.73265e-005 -0.000136574 -0.000109278 -5.46494e-005 -6.42159 81.2158 8.01779 -0.000218544 1.69106e-005 0.000212132 0.000901614 -0.000184798 -0.000218577 -59.9282 75.5373 58.5147 -7.39931 3.63188 2.98679 -167.277 84.4999 48.8109 171.914 2.33755 9.95029 -8.42753e-006 23.4145 3.73945e-005 -48.2042 4.26127 0.455079 -2.16688e-006 5.74145 7.95487e-007 9.5871 -0.290295 -3.46071 -72.0648 39.0385 39.3397 33.3638 2.10361 14.835 0.588946 0.308273 6.35287 -99.6409 81.413 100.35 -0.0181409 3.0077e-005 -0.117315 -0.124139 0.00241113 -0.799296 -79.8382 79.5773 80.5374 -0.000260655 -0.000218567 2.35667e-005 -0.000956238 0.000122995 -2.73258e-005 -66.7416 80.4058 67.2171 -0.000437141 1.488e-005 -2.73243e-005 -0.000136616 -0.000109285 -5.46463e-005 -6.42159 81.2158 8.01779 -0.000218576 1.95771e-005 0.000212293 0.00090157 -0.000191248 -0.000218571 0.000811311 0.56661 89.91 -16.163 -5.12923 -12.9799 3.17492e-007 0.370776 -9.00847e-010 29.3166 -0.752415 -0.00211004 -1.50985e-008 -1.18332 -1.51297e-008 -91.911 -4.97121 -0.210163 -35.4706 -0.0268535 -0.337731 -180 -0.566579 -90.09 -60.9597 1.29066 10.4313 7.22904e-007 2.10754 -3.75982e-008 57.4315 3.53777 -0.00676476 4.85425e-007 5.20447 3.31854e-007 -75.1833 6.36625 -4.10559 -35.4884 -0.00702793 -0.0885599 
